<svg width="1440" height="3000" viewBox="0 0 1440 3000" fill="none" xmlns="http://www.w3.org/2000/svg">
    <g clip-path="url(#clip0_7_2)">
        <rect width="1440" height="3000" fill="#0B0B22" />
        <g clip-path="url(#clip1_7_2)">
            <path
                d="M1112.96 2908.5C1230.5 2878.9 1301.29 2761.58 1271.07 2646.45C1240.86 2531.32 1121.08 2461.99 1003.54 2491.58C886.001 2521.18 815.211 2638.5 845.427 2753.63C875.642 2868.76 995.421 2938.09 1112.96 2908.5Z"
                fill="#16FCD2" />
            <path
                d="M385.806 2792.26C481.301 2768.22 538.814 2672.9 514.265 2579.36C489.717 2485.83 392.403 2429.49 296.908 2453.54C201.414 2477.58 143.9 2572.9 168.449 2666.44C192.997 2759.97 290.312 2816.3 385.806 2792.26Z"
                fill="#6016FC" />
            <path
                d="M354.704 986.376C518.921 1081.38 729.888 1029.35 825.911 870.165C921.934 710.982 866.651 504.925 702.433 409.924C538.216 314.923 327.249 366.952 231.226 526.135C135.203 685.318 190.486 891.375 354.704 986.376Z"
                fill="#0EA5E9" />
            <path
                d="M880.307 945.555C1013.66 1022.7 1184.97 980.449 1262.95 851.186C1340.92 721.923 1296.03 554.595 1162.68 477.45C1029.33 400.305 858.012 442.556 780.037 571.819C702.063 701.082 746.955 868.41 880.307 945.555Z"
                fill="#E11D48" />
            <path
                d="M20.4532 1897.8C164.351 1979.93 350.996 1931.87 437.335 1790.46C523.674 1649.05 477.013 1467.83 333.115 1385.71C189.217 1303.58 2.57271 1351.64 -83.7665 1493.05C-170.106 1634.46 -123.445 1815.67 20.4532 1897.8Z"
                fill="#F97316" />
            <path
                d="M1092.4 2400.07C1284.26 2509.57 1533.12 2445.49 1648.24 2256.95C1763.36 2068.4 1701.15 1826.78 1509.28 1717.27C1317.42 1607.77 1068.56 1671.85 953.441 1860.4C838.322 2048.95 900.537 2290.57 1092.4 2400.07Z"
                fill="#3B82F6" />
        </g>
    </g>
    <defs>
        <clipPath id="clip0_7_2">
            <rect width="1440" height="3000" fill="white" />
        </clipPath>
        <clipPath id="clip1_7_2">
            <rect width="1440" height="5463" fill="white" transform="translate(0 -2500)" />
        </clipPath>
    </defs>
</svg>